/* XPM */
static char *arrow_xpm[] = {
/* columns rows colors chars-per-pixel */
"56 47 53 1",
"O c Black",
"t c #6040C0",
"3 c #60A080",
"e c #40A0C0",
"6 c #A6CAF0",
"& c #6060C0",
"  c #FFFFFF",
"v c #C0DCC0",
"s c #60C080",
"o c #004000",
", c #40C0C0",
"X c #A04080",
"n c #60E080",
"$ c #000040",
"q c #A06080",
"; c #60A0C0",
"2 c #60C0C0",
"- c #004040",
"f c #A0A080",
"p c #C06080",
"i c #000080",
"y c #402000",
": c #A060C0",
"g c #A0C080",
"w c #404000",
"@ c #A0A0A4",
". c #FFFBF0",
"x c #C040C0",
"5 c #400040",
"< c #C0A080",
"0 c #004080",
"8 c #A0A0C0",
"4 c #C060C0",
"d c #006080",
"j c #604000",
"> c #A0C0C0",
"% c #404040",
"+ c #600040",
"k c #400080",
"9 c #C0A0C0",
"z c #406040",
"b c #C0C0C0",
"h c #604040",
"= c #404080",
"c c #600080",
"u c #E0A0C0",
"a c #606040",
"1 c #406080",
"r c #604080",
"# c #40A080",
"* c #606080",
"7 c #4060C0",
"l c #40C080",
/* pixels */
"                    .   XoOO+@  .                       ",
"                      #O$%&*=OO@ .                      ",
"                     -O*@;:*>,*O*                       ",
"                    <O12&3&#&&43OO.                     ",
"                    5O61;1;1;*378OO9                    ",
"                    O%&#&#&#&#&3&20Oq                   ",
"                    w-8*&*&#&3&#&e:1Or.                 ",
"                    @O;;e*;*;*;*;r;&eO$. .              ",
"                     -O19etetetetete93yOu               ",
"                      %O#<;*;r;*;*;*;;2iOp              ",
"                       *O-:,&*&#&3&#&3&;aOX   u         ",
"                        >O-*>#&3;#&3;#&e61Ow            ",
"                          OO*2;1;1;1;*31;s9OO           ",
"                           OO%:e&r&#&3&#&r72=O<   9     ",
"                            *O1;8#&*&1&1&#&78-O*        ",
"                           . @OO;>e*;*;*;*;*;s@O%  .    ",
"                               OO*9et&tet;tet&&eyOu .   ",
" .                              dOe;;*2*;*2*;*2&2OOf .  ",
"   gh$OOOOOOOOOOOOOOOOOOOOOOOOOO%OO=*e&;&e&e&e&#:2rOq   ",
"  *O$1r1*1*1*1*1*1*1*1*1*1*1*1*1*1*=33;*;*;*;3;*e*;1O% .",
" $O88*818*8*8*8*8*8*8*8*8*8*8*8*8*8*;*;1;*;1;*31;r;&&Oy ",
"qO*e&#&;&#7e&#&e&#&;&#&e&#7e&#&e&#&;&#&e&#&e&#&e&#&#&3O3",
"Oi81;*31;*;1;*;1;*;1;*31;*;1;*;1;*;1;*31;*;1;*;1;*;1;>5-",
"Oa;*;*3*;*;*;*;*;*;*;*3*;*;*;*;*;*;*;*3*;*;*;*;*;*;*;q1O",
"5i:e&e&e&e&e&e&e&e&e&e&e&e&e&e&e&e&e&e&e&e&e&e&e&e&e&;+-",
"@O2*2r2*;*2*;*2*;*2*;*2*;*2*;*2*;*2*;*2*;*2*;*2*;*2*2*Of",
" $Oe42&,&&&,&;&,&&&,&;&,&&&,&;&,&&&,&e&e&&te&;te&7t,qOy ",
" .*O0r1=1r1=1r1=1r1=1r1=1r1=1r1=#**r3*;*;3;*;*;*;36*Ow  ",
"   >*OOOOOOOOOOOOOOOOOOOOOOOOOOOjOO0*1*1&1&1&1&1&;kOq   ",
"             .       .       .  kO1;&r&e&3&e&r*#6iO@    ",
"                               OO3;1;1;*;1;1;188OO6     ",
"                             @Oy;l;3;#;3;#;3;;rOz  .   .",
"                .       .   rO5;&*&e&3&e&*&#4-O*        ",
"                 .         OOr23;r;*;*2*;r,2iOs         ",
"                          yOq2tetet;tetet2xOO6          ",
"                        >O$3;3;*;*;*;*;*2=O%   .        ",
"                    .  *O%3#&r*#&*&#&**,cOq             ",
"                      %O7;&3&#&3&#&#&36$Of   .          ",
"                     oO*;l;1;1;*;1;1;&$Ov               ",
"                    8Oe;&r&#&3&#&*&;qO-                 ",
"                    %-8e&#&#&1&#&380O*                  ",
"                    O-8*;*;*;*;*;&=Ob                   ",
"                    5ixet;tet;r;p$O                     ",
"                    nO,&2*;*2*2r$y   .                  ",
"                     %O1:2&,&ecOr                       ",
"                     .aO-=#1zOO@                        ",
"                        3oOOh@                          "
};
