/* XPM */
static char *Run_xpm[] = {
/* width height num_colors chars_per_pixel */
"    64    64      256            2",
/* colors */
"`` c #040204",
"`. c #0482b4",
"`# c #04426c",
"`a c #848284",
"`b c #444244",
"`c c #04628c",
"`d c #448ab4",
"`e c #84c2e4",
"`f c #04223c",
"`g c #2c6294",
"`h c #0472a4",
"`i c #0c5284",
"`j c #c4c2c4",
"`k c #248abc",
"`l c #242224",
"`m c #cce2ec",
"`n c #04324c",
"`o c #44a6cc",
"`p c #048ec4",
"`q c #14628c",
"`r c #04121c",
"`s c #144e6c",
"`t c #1472a4",
"`u c #eceaec",
"`v c #0c427c",
"`w c #8ca6c4",
"`x c #14527c",
"`y c #1482b4",
"`z c #648eb4",
"`A c #4472a4",
"`B c #0c3264",
"`C c #046a9c",
"`D c #042a44",
"`E c #2496c4",
"`F c #141214",
"`G c #147ab4",
"`H c #449ac4",
"`I c #acc2d4",
"`J c #a4a2a4",
"`K c #045e84",
"`L c #c4d6e4",
"`M c #dceef4",
"`N c #6caacc",
"`O c #146a9c",
"`P c #ecf6fc",
"`Q c #0c4a81",
"`R c #040a0f",
"`S c #044a6c",
"`T c #047ab4",
"`U c #148ec4",
"`V c #041a28",
"`W c #145a94",
"`X c #a4bed4",
"`Y c #048ac2",
"`Z c #949294",
"`0 c #0c3a54",
"`1 c #148abc",
"`2 c #646264",
"`3 c #042a4c",
"`4 c #349ac4",
"`5 c #0c426c",
"`6 c #545254",
"`7 c #04629c",
"`8 c #dce6ec",
".` c #0c3247",
".. c #14629c",
".# c #1c729c",
".a c #acd2e4",
".b c #5c92b4",
".c c #0c72ac",
".d c #0c5294",
".e c #1c82b4",
".f c #0c3a64",
".g c #0c6aa4",
".h c #1c7aaf",
".i c #d4d2d4",
".j c #fcfafc",
".k c #0c4a8c",
".l c #0c0a0c",
".m c #7c7a7c",
".n c #042645",
".o c #0476b4",
".p c #2492c4",
".q c #54aad4",
".r c #14528c",
".s c #7496bc",
".t c #249ecc",
".u c #44a2cc",
".v c #74bedc",
".w c #1c96c4",
".x c #041a34",
".y c #b4b2b4",
".z c #0c629c",
".A c #dceaf4",
".B c #0c86bc",
".C c #8c8a8c",
".D c #4492bc",
".E c #9ccee4",
".F c #347aac",
".G c #0476ab",
".H c #0c5688",
".I c #cccacc",
".J c #3c3a3c",
".K c #0496cc",
".L c #04162c",
".M c #ecf2f4",
".N c #0c4682",
".O c #0c2a3c",
".P c #2c9ac4",
".Q c #1c1a1c",
".R c #acaaac",
".S c #045e94",
".T c #6cb2d4",
".U c #f4f6f7",
".V c #0c4e82",
".W c #040e1c",
".X c #1c8ec2",
".Y c #145e9c",
".Z c #0c8ac1",
".0 c #9c9a9c",
".1 c #6c6a6c",
".2 c #0c2a4c",
".3 c #0c4274",
".4 c #5c5a5c",
".5 c #0c3254",
".6 c #1c629c",
".7 c #1c72ac",
".8 c #b4daec",
"#` c #0c3a6c",
"#. c #84bedc",
"## c #bccadc",
"#a c #4c4e4c",
"#b c #dcdadc",
"#c c #bcbabc",
"#d c #144a84",
"#e c #3486b4",
"#f c #7ca6c4",
"#g c #bcd6e4",
"#h c #3492c4",
"#i c #d4eaf4",
"#j c #5cb2d4",
"#k c #2c6a9c",
"#l c #447aa4",
"#m c #8cc6dc",
"#n c #0c2634",
"#o c #4caad4",
"#p c #b4c6dc",
"#q c #e4e2e4",
"#r c #1c5694",
"#s c #0c5a94",
"#t c #1c4e8c",
"#u c #044674",
"#v c #6c8ab4",
"#w c #046eac",
"#x c #ccdae4",
"#y c #e4eef4",
"#z c #0c4e6c",
"#A c #0c7ab4",
"#B c #3c96c4",
"#C c #3c7eac",
"#D c #bcdeec",
"#E c #1c8abc",
"#F c #2c92c4",
"#G c #7c96bc",
"#H c #4ca2cc",
"#I c #e4eaf4",
"#J c #f4f2f4",
"#K c #74b2d4",
"#L c #04060a",
"#M c #0486bc",
"#N c #044664",
"#O c #448ebc",
"#P c #043654",
"#Q c #0492cb",
"#R c #146690",
"#S c #041624",
"#T c #1476ac",
"#U c #1486bc",
"#V c #249acc",
"#W c #449ec7",
"#X c #146ea4",
"#Y c #040e14",
"#Z c #041e2c",
"#0 c #145e94",
"#1 c #042e54",
"#2 c #0c4668",
"#3 c #14669c",
"#4 c #1c76a4",
"#5 c #5c96bc",
"#6 c #1c86bc",
"#7 c #0c3e5c",
"#8 c #0c6ea7",
"a` c #1c7eb4",
"a. c #145692",
"a# c #0c66a2",
"aa c #4496c4",
"ab c #0c2e44",
"ac c #f4fafc",
"ad c #1c92c4",
"ae c #0c5e9c",
"af c #848684",
"ag c #444644",
"ah c #84c6e4",
"ai c #04263c",
"aj c #c4c6c4",
"ak c #242624",
"al c #eceeec",
"am c #0c3664",
"an c #042e44",
"ao c #141614",
"ap c #147eb4",
"aq c #a4a6a4",
"ar c #047eb4",
"as c #949694",
"at c #646664",
"au c #545654",
"av c #04669c",
"aw c #0c5694",
"ax c #d4d6d4",
"ay c #fcfefc",
"az c #0c4e8c",
"aA c #0c0e0c",
"aB c #7c7e7c",
"aC c #041e34",
"aD c #b4b6b4",
"aE c #8c8e8c",
"aF c #cccecc",
"aG c #3c3e3c",
"aH c #1c1e1c",
"aI c #acaeac",
"aJ c #9c9e9c",
"aK c #6c6e6c",
"aL c #0c2e4c",
"aM c #5c5e5c",
"aN c #0c3654",
"aO c #1c76ac",
"aP c #0c3e6c",
"aQ c #dcdedc",
"aR c #bcbebc",
"aS c #e4e6e4",
"aT c #6c8eb4",
"aU c #e4f2f4",
"aV c #3c9ac4",
"aW c #0482bc",
"aX c #046294",
"aY c #0472ac",
"aZ c #0c528c",
"a0 c #043254",
"a1 c #44a6d4",
"a2 c #041224",
"a3 c #1472ac",
"a4 c #0c4284",
"a5 c #1482bc",
"a6 c #046aa4",
"a7 c #2496cc",
"a8 c #146aa4",
/* pixels */
"ayayayayayayayayayayayayayayayayayayayayayayay.jaF.0aKagak`F`````````Fakag.1asaF.jayayayayayayayayayayayayayayayayayayayayayayay",
"ayayayayayayayayayayayayayayayayayayayay#Jaqauao````````````#L#L`R#L`````````````F`6`Jalayayayayayayayayayayayayayayayayayayayay",
"ayayayayayayayayayayayayayayayayayayaF`2aA```````ran#N`K`h`.#M`p`p`Y`.`h`K`San`r``````aAaM.Iayayayayayayayayayayayayayayayayayay",
"ayayayayayayayayayayayayayayayay`j`b```````V`#`C`T`.aW#M`Y`p`p.K.K#Q`p`Y#M#Marar`C`##Z``````aGaRayayayayayayayayayayayayayayayay",
"ayayayayayayayayayayayayayay#b`6````#L`naXaY`T`TararaW#M`Y`p`p#Q.K#Q`p`p#MaWaW`T`T.GaY`c`n#L````#a#bayayayayayayayayayayayayayay",
"ayayayayayayayayayayayayay.CaA``#La0av#waY.c.G#Aar.BaW.Z`1.Z`U`U.Z`U.Z.Z.Z.Bar#A`T.c.G#w.g`7#P#L``.lafayayayayayayayayayayayayay",
"ayayayayayayayayayayayaS`b`````f`Ka6.g#w.c.G#A#U`1.X.X.X.X.p.X.X#E.X#E#E#6#6#6`yap#AaY#8#wa6a#.S`f````aG#qayayayayayayayayayayay",
"ayayayayayayayayayay.I.Q```R#u`7a#a6#8aY`y#Eadad.p.X`kad.X#E#E#E#E`k#6#6#6#6#6#6.e.eap`G#8a6.z`7.S`#`R``.Qajayayayayayayayayayay",
"ayayayayayayayayay.y.l``#S.H`7a#av#8a5adadad.p.X.X.Xad`k.X#E`k#E#E#6#6#6#6.e#6.e.e.e.eapa`#T.g.z.zaeaZ#S``.l.yayayayayayayayayay",
"ayayayayayayayay.y#L``ai.S.S.za#apad.p.pad.p.X`kad`k.X.X`k#E#E#E#6#E#6#6.e#6.e.e.e.ea`.ea`ap.h.c.z.S#saw`f``#Laqayayayayayayayay",
"ayayayayayayay#c#L```D.S#sae.c.X.w.p.wad.p.Xadad.X.X`k.X#E#E#E#6`k#6#6.e#6.e.e.ea``ya`a`ap.ha`.h#Ta##saw.H.n``.l.yayayayayayayay",
"ayayayayayay.iaA``aiaw.Saeapada7ad.pad.p.Xad`k.X`k.X#E#E#E`k#6#6#6#6#6.e#6.e.e.ea`a`apa`.ha``G.h.h#T#X.S.d.dai``aA.iayayayayayay",
"ayayayayay#J`l``aCaw.S#s#6.w.pada7adad.X.p.X.X.X.X#E`kad.p.wa7#V`E.w`Ead`k#6.eap.ea`a``Ga``G.h`G.h#TaO#X.SaZazaC```lalayayayayay",
"ayayayayayau```raZawae.Xa7.wa7ad.pad.p.X.X`k.X.p`E.t.t.t.t.t.t.t.t.t.t.t.t.t.w`E#6a`a`.h.h.h#T.h.haO#TaO#XawaZ`Q.W``auayayayayay",
"ayayayay.R``#L#uaw.S.Xa7ad.pad.pad.X.X`kad.w#V.t.t.t.t.t.t.t.t.t.t.t.t.t.t.t.t.t.t.w#Ea``G.h.h#T#TaO#Ta3aO#Xawaz`#````aqayayayay",
"ayayay#J.Q``#1.d#s.Xa7ada7ad.pad.X.p.X`E#V#V.t.w.t#V.t#V.t#V.t#V.t#V#V#V.t#V.t#V#V.t.t.w#E`G.h#4#TaO.7a3a3a3#X.daz#1``.Q#Jayayay",
"ayayay.m```raZaw#U`Eadad.padad.X.p.X`E.w.t.w.t#V#V#V#V.w#V.w#V.w#V.w.t.w#V.w#V#V#V#V#V.w#V.papaO#T#T.##T.#a3.#a8az#ua2``.mayayay",
"ayay`uaA```#az`G.wa7.w.pad.pad`kad#V#V.w#V#V.w#V#V.w#V#V#V#V.w.t#V#V.w.t#V#V.w#V.w#V#V.w#V.w#V.ea3.7a3.7a3#X#X#X...kam``.l`uayay",
"ayayaB``#Saza#`Eadad.pad.p.Xad.p.wa7.w#V.w#V.w.w#V.w#V.w#V.w#V.wa7.w#V.wa7.w#V.w#V.w#V#V.w#V.wa7#6#T`t`t.7#X.7#Xa8aw.N.L``aBayay",
"ay.j.Q``#`.H.Xada7.padad.X`k.wa7.wa7a7.wa7a7a7.wa7.w.w.w.wa7.wa7.wa7.wa7.wa7.w.w.w.w.w.wa7.wa7.w`E#6.##X#X#X#X#Xa8a8.k#P``.Q.Uay",
"ayaI``#Yaza3.w.padad.p.X.pad`Eada7.w`Eada7ad.wa1`e`e#oa7.wad.wad.w.wad.w.w.wa7.wa7ada7ada7ada7ada7ad.e#X.7#X.7a8a8a8`W.N.W``.yay",
"ay.4```3awad.pad.pad.p.Xad.pad.pad.pad.pad.p#jacayayay#Da1ada7a7ada7ada7ada7ada7ada7ada7ad.pad.pad.pad.h#Xa8a8a8a8`Oa8.k`f``.4ay",
".Uao```#a3ada7adad.X.X`kadad.padad.padad.pad#iayayayayay.j.Ea7.p.X.pad.Xa7.X.X.X.p.X.p.X.pad.pad.pad.p.Xa3#Xa8a8`Oa8#3`W#```ao.j",
".I```R.d.X.pad.p.X.p.X.pad`kadad.p.X.p.Xad`4ayayayayayayayay`P.v.p.X.p.X.X.p.X.pad.Xad.p.Xad.X.pad.Xad.p.ea8a8a8a8`O#3#3.N`R``.I",
"aE``aC#3ad.pad.X`kad.X.X`kad.X`kad.X.X.p.X#Hayayayayayayayayayay#i.q.X.p.X.X.p.X.X.p.X.X.p.X.p.X.X.p.X.X.XaO`Oa8.6a8#3#3.d.x```Z",
"`2```3a`adad.p.Xad`k.X.X.X.X.X.X.X`k.X.X.X#Hayayayayayayayayayayayay.8aV#E.X#E.X.p#E.X.X#E.X#E.X`k.X.X`k.X#6a8`O#3#3#3#3`W.n```2",
".J```#.X.p.X.X`kad.X`k.X`k#E`k#E.X#E#E`k#E#Hayayayayayayayayayayayayayac#m#F`k#E#E#E`k#E`k#E#E.X#E#E#E.X`k#E.##3#3#3#3....`B``aG",
".Q```i.p.X.p.Xad.X#E#E#E#E#E#E#E#E`k#E#E#E.uayayayayayayayayayayayayayayayaU.T`k#E#E#E#E#E#E#E`k#E#E#E#E#E#E.h#3a8..#3....`v```l",
"`R``#3ad.X.X`k.X#E#E#6#E#6#E#E#6#E#6#E#6#E#Hayayayayayayayayayayayayayayayayay`m#H#E#6#E#E#E#6#E#6#E#6#E#6#E#6#3#3.........V``aA",
"````#T.X`kad.X`k#E#6`k#6#6#6#6#6#6#6#6#6#6`Hayayayayayayayayayayayayayayayayayayay.a#h#6#6#6#6#6#6`k#6#6`k#6#6a8#3........aZ````",
"``#L.e.Xad.X#E.X#E#6.e#6#6.e#6#6#6.e#6#6#6#Hayayayayayayayayayayayayayayayayayayayay.U#.`k#6#6#6#6.e#6#6.e#6#6.7.......z.Ya.````",
"````#6.X`k.X`k#E#6.e.e.e#6.e.e.e.e#6.e.e.e`Hayayayayayayayayayayayayayayayayayayayayayay.A#B.e.e.e.e.e.e.e.e.e`G.......Y`q#s#L``",
"``#L#6.X.X#E#E#E.e.e.e.e.e.e.e.e.e.e.e.e.e`Hayayayayayayayayayayayayayayayayayayayayayayay`M#ea5.e.e.e.e.e.e.e.h..ae...Y.Y`W#L``",
"``#L.e.X`k#E#E#E.ea`.ea`a`.ea`.ea`.ea`.ea`aaayayayayayayayayayayayayayayayayayayayayayayayay.Ta`.ea`.ea`.ea`.e`G..#0.Y#0ae`W````",
"``#L.e#E#E#E#E#6a`a`a`apa`a`a`a`a`a`a`a`a`aaayayayayayayayayayayayayayayayayayayayayayayayay#K.hapa`a`apa`a`a`.h..#0.Yae`W`W#L``",
"aA#La`#E#E#E`k#6a`ap.ha`.hap.hap.hap.hap.haaayayayayayayayayayayayayayayayayayayayayayayay.U#e.ha`a``Ga`.hap.h`G#0.Y#0#0`W.H``#L",
"`l```t.X#E#6#6#6a`.h`G.h`G.h.h`G.h.h`G.ha`.Dayayayayayayayayayayayayayayayayayayayayayayac#5#T.h`G.h.h`G.h.h`GaO#0ae`W#0`W.V``.Q",
"aG``#R#E.e#E.e#E.h#T.h.h.h#T.h.h#T.h.h#T.h.Dayayayayayayayayayayayayayayayayayayayayay`L#Ca8.h`G.h`G.h.h`G.h.h`t.Y`W#0#s`W`5``.J",
"at``#z#E`k#6.e#6a`#T.h#T.h#T.h#T.h#T.h#T.h#Oayayayayayayayayayayayayayayayayayayay.A.b.Y#XaO#TaOaO#TaO#TaO#TaOa8`W#0`W`W`W#P``aM",
"`Z``.`#6.e#E.e#6a`#T#4#T#4#T#4#T#4#T#4#T#T#Oayayayayayayayayayayayayayayayayay.U`w.Y#3.7#TaO#TaO#TaO#TaO#TaO#T#3#0#s`W#s`W`f``aE",
".I```r#6#6.e#6.e.e.#a3.#a3.7`t.7`t.7a3.#.7#Oayayayayayayayayayayayayayayayay`X#kae#X.7#T.7a3.7a3.#a3.7`t.7`t.7#0`W`W`W`Waw#Y``aj",
"acao```t.e#6.e.e.e#Ta3.7`ta3.#a3a3.#a3a3`t`dayayayayayayayayayayayayayay#x`A`W#3a3.7`t`ta3.#a3a3a3.#a3a3.#a3#X`W#s`W#sa.`Q```F.j",
"ay.4``#2.e.e.e.e.eaO#X#X.7#X#X.7#X#X.7#X.7`dayayayayayayayayayayayay#I`z.r..#Xa3.##X.7#X.7#X#X.##X#X.7#X#X#X#3`W`Wa.`WawaL``auay",
"ay.y```V.e#6.e.e`ya``t#X#X.##X#X.7#X#X#X#X`dayayayayayayayayayay.U`w#r#sa8#X#X#X#X#X#X#X#X#X.7a8#X#X#X#X.7#X`W`W#sa.awa.`r``aIay",
"ay.U.Q```q.e.eapa`a`a3a8a8a8a8a8a8a8a8a8a8.Fayayayayayayayayay`I`g.d#3a8#Xa8.#a8a8#Xa8.#a8a8a8#X.7a8a8#Xa8..`W`Waw`Wa.`5``.Q.Uay",
"ayayaB``aia`.ea`a`a`.h#Xa8a8a8a8a8a8a8a8a8a8alayayayayayay#x`A#d.Ya8`Oa8a8a8a8a8a8a8a8a8a8a8a8a8#3a8a8a8a8`W`Wawa.aw.H`V``aBayay",
"ayay`uaA```qa`apa``Ga`.#a8`Oa8`Oa8`O`Oa8.6`O#GayayayayalaT#d.r#3#3a8.6a8#3a8#3#3a8.6a8#3a8#3a8#3a8a8.6a8#0`W#sa.a.a..3``.l`uayay",
"ayayay.m``#Za`a`.ha`.h`Ga8#3.6#3#3.6#3#3#3#3.d#v###p#G#taz.Y#3#3#3#3#3#3#3#3#3#3#3#3#3#3#3#3#3#3#3#3#3..`W#sa.a..HaZa2``.mayayay",
"ayayayal.Q``#2apa`#Ta`.haO#3#3#3..#3#3..#3....az`va4.V`W#3#3#3#3..#3#3#3..#3..#3..#3#3..#3..#3..#3..#3`Wawa.a..H.r`B``aH.Mayayay",
"ayayayayaq```R`Oa`.h#T.h#Ta3........................................................................`Waw`Wa..H.r`Q#L``.Rayayayay",
"ayayayayay`6```V`t.h#T.haOaO`t.....Y..ae...Y..ae`q.Y..ae...Y.Y.z.Y...Y.z.Y...Y...Y...Y...Y...Y...Y`Wawa.a..H.r.d`r``auayayayayay",
"ayayayayayal`l``an.h.h#T#TaO#T#X...Y#0.Y#0.Y#0.Y.Y.Y#0#0#0.Y#0.Y.Y.Y.Y.Y.Y.Y.Yae.Y.Yae.Y.Yae.Y#0#sa.`W.Ha..da.aC``ak#Jayayayayay",
"ayayayayayayaFaA``aN#T#4#T.#a3.7`t..`Wae`Wae`W#0#s#0`Wae`Wae`W#0#s#0`Wae`W#0`W#0`W#0`W#0`W#0`W#sa.awa.aw.raZ.O``aA.iayayayayayay",
"ayayayayayayay.y#L```0`taOa3aO`ta3#X#3#0`W`W`W#s`W`W#s`W`W`W`W#s`W`W#s`W`W#s`W#s`W#s`W#s`W#s`Wa.#sa.a..r.H.2``#L#cayayayayayayay",
"ayayayayayayayay.R````an.7a3`t.7#X.7#Xa8..`Waw`Wa.#sa.`Wa.#sa.`Wa.#sa.`Wa.#sa.`Wa.`Wa.`W`Wa.#sa.a..HaZ.r`f``#L.yayayayayayayayay",
"ayayayayayayayayayaI.l``#Z`O.##X#X#X#X#Xa8a8`q`Wawa.a.awa.a..Ha.awa.a..Ha.a..Ha.aw`W#s`W#sa.a..Ha..r.V#S``aAaDayayayayayayayayay",
"ayayayayayayayayayay`jao```R`i#X.7#X.#a8a8a8a8#3#3.Y#sa.aZa..da.aZa.aZa.awa.`W`W`W`W`W#sa.#sa.aw.r#``R``aH.Iayayayayayayayayayay",
"ayayayayayayayayayayay#qaG`````D`q#Xa8a8a8a8a8#3#3#3#3....`q.Y`W#0#s#0#0`W#0#s`W#s`W`Wa.awa.a.`QaC````agaSayayayayayayayayayayay",
"ayayayayayayayayayayayay.j`a`R``#L`0#3a8a8`O.6a8#3#3#3#3.......z.Y#0.Yae`W.Y`W`W`W#sa.#sa..V`D#L``aAaE.jayayayayayayayayayayayay",
"ayayayayayayayayayayayayayayaxag````#L.``W`Oa8#3#3#3.........Y`q.Y.Y#0`W#0#s`W#s`Wa.aw`Q#n#L````#aaQayayayayayayayayayayayayayay",
"ayayayayayayayayayayayayayayayay#c.J```````V`0`W#3..#3.....z.Yae.Yae#0`W`W`W`W#s`Q.5#S```````baRayayayayayayayayayayayayayayayay",
"ayayayayayayayayayayayayayayayayayay`jau.l``````#Y`fam#2`ia.`W#0`Wa.`i.V`5a0aC`R``````aAaMaFayayayayayayayayayayayayayayayayayay",
"ayayayayayayayayayayayayayayayayayayayay`uaJ#aaA``````````````#L#L#L````````````aoauaqalayayayayayayayayayayayayayayayayayayayay",
"ayayayayayayayayayayayayayayayayayayayayayayay.jajasat`bakaA````````aAakag.1asaF.jayayayayayayayayayayayayayayayayayayayayayayay"
};
